# xmcd CD database file
#
# Track frame offsets:
#	150
#	10348
#	24893
#	36458
#	46944
#	61201
#	75264
#	90508
#	108843
#	120632
#	138096
#	153494
#	170664
#	182851
#	195401
#	210992
#	225988
#	235516
#
# Disc length: 3377 seconds
#
# Revision: 0
# Processed by: cddbd v1.4PL0 Copyright (c) Steve Scherf et al.
# Submitted via: CDex 1.50beta10
#
DISCID=ce0d2f12
DTITLE=Dead Ringer Band - the very best ...so far
DYEAR=2002
DGENRE=Country
TTITLE0=Living In The Circle
TTITLE1=Home Fires
TTITLE2=That's What Makes A Broken Heart
TTITLE3=Australian Son
TTITLE4=I Wish It Would Rain
TTITLE5=Half Way To Sydney
TTITLE6=Saddle Boy
TTITLE7=Already Gone
TTITLE8=Crazy Heart
TTITLE9=Gypsy Bound
TTITLE10=Family Man
TTITLE11=Speed Of The Sound Of Loneliness
TTITLE12=Am I The Only One (Who's Ever Felt This Way)
TTITLE13=He Still Thinks I Care
TTITLE14=That's More About Love
TTITLE15=If I Needed You
TTITLE16=Road To Nowhere
TTITLE17=Just Like Yesterday (Song For Gram)
EXTD=YEAR: 2002
EXTT0=
EXTT1=
EXTT2=
EXTT3=
EXTT4=
EXTT5=
EXTT6=
EXTT7=
EXTT8=
EXTT9=
EXTT10=
EXTT11=
EXTT12=
EXTT13=
EXTT14=
EXTT15=
EXTT16=
EXTT17=
PLAYORDER=
